<?xml version="1.0" encoding="utf-8"?>
<!-- Generator: Adobe Illustrator 19.0.0, SVG Export Plug-In . SVG Version: 6.00 Build 0)  -->
<svg version="1.1" id="Layer_1" xmlns="http://www.w3.org/2000/svg" xmlns:xlink="http://www.w3.org/1999/xlink" x="0px" y="0px"
	 viewBox="0 0 342.6 115.3" style="enable-background:new 0 0 342.6 115.3;" xml:space="preserve">
<style type="text/css">
	.st0{display:none;fill-rule:evenodd;clip-rule:evenodd;fill:#2D353C;}
	.st1{fill-rule:evenodd;clip-rule:evenodd;fill:#F4F7FB;}
</style>
<rect x="-130.1" y="-155" class="st0" width="566.9" height="425.2"/>
<g>
	<g>
		<path class="st1" d="M170,112.8c0,1.4-1.1,2.5-2.5,2.5c-1.4,0-2.5-1.1-2.5-2.5V95.5h-35.9v17.3c0,1.4-1.1,2.5-2.5,2.5
			c-1.4,0-2.5-1.1-2.5-2.5V93c0-1.4,1.1-2.5,2.5-2.5h40.8c1.4,0,2.5,1.1,2.5,2.5V112.8z"/>
		<path class="st1" d="M121.5,90.5h51.2V52h-51.2V90.5L121.5,90.5z M175.2,95.5H119c-1.4,0-2.5-1.1-2.5-2.5V49.5
			c0-1.4,1.1-2.5,2.5-2.5h56.1c1.4,0,2.5,1.1,2.5,2.5V93C177.7,94.4,176.6,95.5,175.2,95.5z"/>
		<path class="st1" d="M163.5,39.2h-32.8l-4.2,7.8h41.1L163.5,39.2L163.5,39.2z M129.2,34.3H165v0c0.9,0,1.7,0.5,2.2,1.3l6.7,12.6
			c0.3,0.4,0.4,0.9,0.4,1.4c0,1.4-1.1,2.5-2.5,2.5h-49.3v0c-0.4,0-0.8-0.1-1.2-0.3c-1.2-0.6-1.7-2.1-1-3.4l6.7-12.6
			C127.3,34.9,128.2,34.3,129.2,34.3z"/>
		<path class="st1" d="M136.8,34.3h20.5v-8.9h-20.5V34.3L136.8,34.3z M159.9,39.2h-25.5c-1.4,0-2.5-1.1-2.5-2.5V22.9
			c0-1.4,1.1-2.5,2.5-2.5h25.5c1.4,0,2.5,1.1,2.5,2.5v13.9C162.4,38.1,161.2,39.2,159.9,39.2z"/>
		<path class="st1" d="M147.1,14.1l-5.1,6.3h10.1L147.1,14.1L147.1,14.1z M135,21.4l10.2-12.7c0.1-0.2,0.3-0.3,0.4-0.4
			c1.1-0.9,2.6-0.7,3.5,0.4l10.1,12.6c0.4,0.4,0.7,1.1,0.7,1.7c0,1.4-1.1,2.5-2.5,2.5h-20.4v0c-0.5,0-1.1-0.2-1.5-0.5
			C134.3,24,134.1,22.4,135,21.4z"/>
		<path class="st1" d="M144.6,103.2c0-1.4,1.1-2.5,2.5-2.5c1.4,0,2.5,1.1,2.5,2.5v9.6c0,1.4-1.1,2.5-2.5,2.5c-1.4,0-2.5-1.1-2.5-2.5
			V103.2z"/>
		<path class="st1" d="M134.4,103.2c0-1.4,1.1-2.5,2.5-2.5s2.5,1.1,2.5,2.5v9.6c0,1.4-1.1,2.5-2.5,2.5s-2.5-1.1-2.5-2.5V103.2z"/>
		<path class="st1" d="M154.8,103.2c0-1.4,1.1-2.5,2.5-2.5c1.4,0,2.5,1.1,2.5,2.5v9.6c0,1.4-1.1,2.5-2.5,2.5c-1.4,0-2.5-1.1-2.5-2.5
			V103.2z"/>
		<path class="st1" d="M144.6,2.5c0-1.4,1.1-2.5,2.5-2.5c1.4,0,2.5,1.1,2.5,2.5v6.6c0,1.4-1.1,2.5-2.5,2.5c-1.4,0-2.5-1.1-2.5-2.5
			V2.5z"/>
		<path class="st1" d="M157,61.3c-5.5-5.5-14.4-5.5-19.9,0c-5.5,5.5-5.5,14.4,0,19.9c5.5,5.5,14.4,5.5,19.9,0
			C162.5,75.7,162.5,66.8,157,61.3L157,61.3z M153.7,71.6l-9.2,6.9c-0.4,0.3-1,0-1-0.5l-0.1-13c0-0.5,0.5-0.8,1-0.5l9.3,6.1
			C154,70.8,154.1,71.3,153.7,71.6z"/>
	</g>
	<path class="st1" d="M300.5,46.1c-0.5,0.5-1.1,0.7-1.8,0.7c-0.3,0-0.6-0.1-1-0.2c-0.3-0.1-0.6-0.3-0.8-0.5l0,0
		c-0.2-0.2-0.4-0.5-0.5-0.8c-0.1-0.3-0.2-0.6-0.2-0.9c0-0.3,0.1-0.6,0.2-0.9v0c0.1-0.3,0.3-0.6,0.5-0.8l0.1-0.1
		c0.2-0.2,0.5-0.4,0.8-0.5h0c0.3-0.1,0.6-0.2,0.9-0.2c0.3,0,0.6,0.1,0.9,0.2c0.3,0.1,0.6,0.3,0.8,0.5l0,0c0.2,0.2,0.4,0.5,0.5,0.8
		c0.1,0.3,0.2,0.6,0.2,1c0,0.3-0.1,0.7-0.2,1C300.9,45.6,300.7,45.9,300.5,46.1L300.5,46.1z M306,29.5c-0.5-0.5-0.7-1.1-0.7-1.8
		c0-0.7,0.3-1.3,0.7-1.8h0c0.5-0.5,1.1-0.7,1.8-0.7h11.1c0.7,0,1.3,0.3,1.8,0.7c0.4,0.5,0.7,1.1,0.7,1.8c0,0.7-0.3,1.3-0.7,1.7
		c-0.5,0.4-1.1,0.7-1.7,0.7h-3.1v14.1c0,0.7-0.3,1.3-0.7,1.8c-0.4,0.5-1.1,0.7-1.8,0.7c-0.7,0-1.3-0.3-1.8-0.7v0
		c-0.5-0.5-0.7-1.1-0.7-1.8V30.2h-3C307.1,30.2,306.5,29.9,306,29.5L306,29.5z M340.9,25.4L340.9,25.4c0.7,0.3,1.1,0.7,1.4,1.3
		c0.3,0.6,0.3,1.2,0.1,1.8c-0.6,2.5-5.2,14.2-6.4,16.7c-0.2,0.5-0.5,0.9-0.9,1.2c-0.4,0.3-0.9,0.5-1.4,0.5h0c-0.5,0-1-0.2-1.4-0.5h0
		c-0.4-0.3-0.7-0.7-0.9-1.2c-1.7-4.5-5.2-12.3-6.2-16.6c-0.2-0.6-0.2-1.3,0.1-1.8c0.3-0.6,0.7-1,1.3-1.3l0.1,0l0,0
		c0.6-0.2,1.3-0.2,1.9,0.1c0.6,0.3,1.1,0.7,1.3,1.4l3.9,10.4c1.2-3.1,2.7-7.8,4.1-10.6c0.3-0.6,0.7-1.1,1.3-1.3
		C339.6,25.2,340.3,25.1,340.9,25.4z"/>
	<path class="st1" d="M82.9,52H71.6v17.6h11.5c2.4,0,4.4-0.9,5.8-2.5c1.5-1.6,2.3-3.8,2.3-6.3c0-2.5-0.9-4.8-2.4-6.3
		C87.4,52.9,85.3,52,82.9,52L82.9,52z M78.3,74.5h-6.7v18.4c0,0.7-0.3,1.4-0.8,1.9c-0.5,0.5-1.1,0.8-1.9,0.8c-0.7,0-1.4-0.3-1.9-0.8
		c-0.5-0.5-0.8-1.2-0.8-1.9V49.7c0-0.7,0.3-1.4,0.8-1.9c0.5-0.5,1.2-0.8,1.9-0.8h14c3.9,0,7.4,1.5,9.8,3.9c2.5,2.5,3.9,5.9,3.9,9.8
		c0,3.8-1.3,7.1-3.6,9.6c-2.1,2.3-5.1,3.8-8.7,4.1l12.6,16.7c0.2,0.2,0.3,0.5,0.4,0.8c0.1,0.3,0.1,0.6,0.1,0.9
		c0,0.7-0.3,1.4-0.8,1.9c-0.5,0.5-1.2,0.8-1.9,0.8c-0.4,0-0.9-0.1-1.3-0.3c-0.4-0.2-0.7-0.5-1-0.9L78.3,74.5z"/>
	<path class="st1" d="M215.3,52h-11.3v17.6h11.5c2.4,0,4.4-0.9,5.8-2.5c1.5-1.6,2.3-3.8,2.3-6.3c0-2.5-0.9-4.8-2.4-6.3
		C219.8,52.9,217.8,52,215.3,52L215.3,52z M210.7,74.5h-6.7v18.4c0,0.7-0.3,1.4-0.8,1.9c-0.5,0.5-1.1,0.8-1.9,0.8
		c-0.7,0-1.4-0.3-1.9-0.8c-0.5-0.5-0.8-1.2-0.8-1.9V49.7c0-0.7,0.3-1.4,0.8-1.9c0.5-0.5,1.2-0.8,1.9-0.8h14c3.9,0,7.3,1.5,9.8,3.9
		c2.5,2.5,3.9,5.9,3.9,9.8c0,3.8-1.3,7.1-3.6,9.6c-2.1,2.3-5.1,3.8-8.7,4.1l12.6,16.7c0.2,0.2,0.3,0.5,0.4,0.8
		c0.1,0.3,0.1,0.6,0.1,0.9c0,0.7-0.3,1.4-0.8,1.9c-0.5,0.5-1.2,0.8-1.9,0.8c-0.4,0-0.9-0.1-1.3-0.3c-0.4-0.2-0.7-0.5-1-0.9
		L210.7,74.5z"/>
	<path class="st1" d="M41,88.4c-2.2,2.2-4.8,4.1-7.8,5.3c-2.8,1.2-6,1.9-9.2,1.9c-3.3,0-6.4-0.7-9.2-1.9c-2.9-1.2-5.6-3.1-7.8-5.3
		c-2.2-2.3-4-5-5.2-7.9c-1.2-2.9-1.8-6-1.8-9.3c0-3.2,0.7-6.3,1.8-9.2c1.2-2.9,3-5.6,5.2-7.8c2.2-2.2,4.9-4,7.8-5.2
		c2.8-1.2,5.9-1.8,9.2-1.8s6.3,0.7,9.2,1.8c2.9,1.2,5.6,3,7.8,5.2c2.2,2.2,4,4.9,5.2,7.8c1.2,2.9,1.8,6,1.8,9.2
		c0,3.3-0.6,6.4-1.8,9.3C45,83.4,43.2,86.1,41,88.4L41,88.4z M31.1,88.7c2.3-1,4.3-2.4,6-4.1c1.7-1.8,3.1-3.9,4.1-6.2
		c0.9-2.2,1.4-4.7,1.4-7.3c0-2.5-0.5-4.9-1.4-7.1c-1-2.3-2.3-4.4-4.1-6.1c-1.7-1.7-3.8-3.1-6-4c-2.2-0.9-4.6-1.4-7.1-1.4
		s-4.9,0.5-7.1,1.4c-2.3,0.9-4.3,2.3-6,4c-1.7,1.7-3.1,3.8-4.1,6.1c-0.9,2.2-1.4,4.6-1.4,7.1c0,2.6,0.5,5.1,1.4,7.3
		c0.9,2.3,2.3,4.4,4.1,6.2c1.7,1.7,3.8,3.2,6,4.1c2.2,0.9,4.6,1.4,7.1,1.4C26.6,90.1,29,89.6,31.1,88.7z"/>
	<path class="st1" d="M286.7,88.4c-2.2,2.2-4.8,4.1-7.8,5.3c-2.8,1.2-6,1.9-9.2,1.9c-3.3,0-6.4-0.7-9.2-1.9
		c-2.9-1.2-5.6-3.1-7.8-5.3c-2.2-2.3-4-5-5.2-7.9c-1.2-2.9-1.8-6-1.8-9.3c0-3.2,0.7-6.3,1.8-9.2c1.2-2.9,3-5.6,5.2-7.8
		c2.2-2.2,4.9-4,7.8-5.2c2.8-1.2,5.9-1.8,9.2-1.8c3.2,0,6.3,0.7,9.2,1.8c2.9,1.2,5.6,3,7.8,5.2c2.2,2.2,4,4.9,5.2,7.8
		c1.2,2.9,1.8,6,1.8,9.2c0,3.3-0.6,6.4-1.8,9.3C290.7,83.4,288.9,86.1,286.7,88.4L286.7,88.4z M276.8,88.7c2.3-1,4.3-2.4,6-4.1
		c1.7-1.8,3.1-3.9,4.1-6.2c0.9-2.2,1.4-4.7,1.4-7.3c0-2.5-0.5-4.9-1.4-7.1c-1-2.3-2.3-4.4-4.1-6.1c-1.7-1.7-3.8-3.1-6-4
		c-2.2-0.9-4.6-1.4-7.1-1.4c-2.5,0-4.9,0.5-7.1,1.4c-2.3,0.9-4.3,2.3-6,4c-1.7,1.7-3.1,3.8-4.1,6.1c-0.9,2.2-1.4,4.6-1.4,7.1
		c0,2.6,0.5,5.1,1.4,7.3c0.9,2.3,2.3,4.4,4.1,6.2c1.7,1.7,3.8,3.2,6,4.1c2.2,0.9,4.6,1.4,7.1,1.4C272.3,90.1,274.7,89.6,276.8,88.7z
		"/>
</g>
</svg>
